HIERARCHY
ROOT base
{
	OFFSET 0.000000 0.000000 0.000000
	CHANNELS 6 Xposition Yposition Zposition Xrotation Yrotation Zrotation
	JOINT torso
	{
		OFFSET 0.000000 0.000000 0.490888
		CHANNELS 3 Xrotation Yrotation Zrotation
		JOINT head
		{
			OFFSET 0.000000 0.000000 0.372984
			CHANNELS 3 Xrotation Yrotation Zrotation
			End Site
			{
				OFFSET 0.000000 -0.000000 0.184769
			}
		}
		JOINT arm.upper.left
		{
			OFFSET 0.163516 0.000000 0.306886
			CHANNELS 6 Xposition Yposition Zposition Xrotation Yrotation Zrotation
			JOINT arm.lower.left
			{
				OFFSET 0.011593 0.000000 -0.206361
				CHANNELS 3 Xrotation Yrotation Zrotation
				End Site
				{
					OFFSET 0.012971 0.000000 -0.197808
				}
			}
		}
		JOINT arm.upper.right
		{
			OFFSET -0.163516 0.000000 0.306886
			CHANNELS 6 Xposition Yposition Zposition Xrotation Yrotation Zrotation
			JOINT arm.lower.right
			{
				OFFSET -0.011593 0.000000 -0.206361
				CHANNELS 3 Xrotation Yrotation Zrotation
				End Site
				{
					OFFSET -0.012971 0.000000 -0.197808
				}
			}
		}
	}
	JOINT leg.upper.left
	{
		OFFSET 0.068166 0.000000 0.503791
		CHANNELS 6 Xposition Yposition Zposition Xrotation Yrotation Zrotation
		JOINT leg.lower.left
		{
			OFFSET 0.008766 0.000000 -0.256595
			CHANNELS 3 Xrotation Yrotation Zrotation
			End Site
			{
				OFFSET -0.001038 0.000000 -0.245963
			}
		}
	}
	JOINT leg.upper.right
	{
		OFFSET -0.068166 0.000000 0.503791
		CHANNELS 6 Xposition Yposition Zposition Xrotation Yrotation Zrotation
		JOINT leg.lower.right
		{
			OFFSET -0.008766 0.000000 -0.256595
			CHANNELS 3 Xrotation Yrotation Zrotation
			End Site
			{
				OFFSET 0.001038 0.000000 -0.245963
			}
		}
	}
}
MOTION
Frames: 20
Frame Time: 0.041667
0.000000 0.000000 0.000000 -0.000000 0.000000 -0.000000 -0.000000 0.000000 -0.000000 0.000000 0.000000 0.000000 0.163516 0.000000 0.306886 -0.000000 0.000000 -0.000000 -0.000000 0.000001 -0.000000 -0.165037 0.000000 0.305294 -7.959008 0.018507 5.960305 -85.942693 4.384307 18.276288 0.068166 0.000000 0.503791 -0.052861 -0.709388 0.073206 0.329560 1.304563 0.003638 -0.068166 0.000000 0.503791 1.441282 0.845025 -0.019703 -0.341771 -1.308111 0.436397 
0.000000 0.000000 0.000000 -0.000000 0.000000 -0.000000 -0.000000 -0.000000 -1.616931 -0.000000 0.000000 -0.000000 0.163516 0.000000 0.306886 -0.000000 0.000000 -0.000000 -0.000000 0.000001 0.000001 -0.164984 0.000000 0.305350 -8.166331 0.780752 5.342527 -85.655066 3.629026 17.800281 0.068166 0.000000 0.503791 -0.321350 -0.668801 0.064092 0.309618 1.196323 0.007280 -0.068166 0.000000 0.503791 1.694945 0.803003 -0.028117 -0.323140 -1.196223 0.347561 
0.000000 0.000000 0.000000 -0.000000 0.000000 -0.000000 -0.000000 -0.000000 -6.491031 0.000000 0.000000 0.000000 0.163516 0.000000 0.306886 -0.000000 0.000001 -0.000000 -0.000000 0.000001 -0.000000 -0.164827 0.000000 0.305515 -8.753111 3.077496 3.506783 -84.801129 1.364484 16.402064 0.068166 0.000000 0.503791 -1.122929 -0.547368 0.038011 0.250129 0.872758 0.017927 -0.068166 0.000000 0.503791 2.452125 0.674375 -0.052060 -0.266496 -0.862246 0.082173 
0.000000 0.000000 0.000000 -0.000000 0.000000 -0.000000 -0.000000 -0.000000 -14.281017 0.000000 -0.000000 -0.000000 0.163516 0.000000 0.306886 0.000000 0.000001 0.000000 -0.000000 0.000002 -0.000001 -0.164579 0.000000 0.305774 -9.569908 6.750296 0.637670 -83.485559 -2.232082 14.267750 0.068166 0.000000 0.503791 -2.385227 -0.355409 0.000389 0.156587 0.362198 0.034010 -0.068166 0.000000 0.503791 3.644163 0.463946 -0.086072 -0.174188 -0.336585 -0.336314 
0.000000 0.000000 0.000000 -0.000000 0.000000 -0.000000 -0.000000 -0.000000 -23.877628 0.000000 0.000000 0.000001 0.163516 0.000000 0.306886 0.000000 0.000000 0.000002 -0.000000 0.000001 -0.000003 -0.164277 0.000000 0.306090 -10.392162 11.294864 -2.831762 -81.902950 -6.650727 11.777156 0.068166 0.000000 0.503791 -3.923166 -0.120450 -0.039724 0.042804 -0.261918 0.052477 -0.068166 0.000000 0.503791 5.096054 0.192968 -0.120965 -0.056550 0.303558 -0.847286 
0.000000 0.000000 0.000000 -0.000000 0.000000 -0.000000 -0.000000 -0.000000 -33.470516 0.000000 -0.000000 -0.000002 0.163516 0.000000 0.306886 -0.000000 0.000001 0.000000 -0.000000 0.000001 0.000006 -0.163974 0.000000 0.306407 -11.056562 15.886088 -6.279606 -80.243070 -11.084715 9.416060 0.068166 0.000000 0.503791 -5.460924 0.115501 -0.073515 -0.070823 -0.889561 0.069705 -0.068166 0.000000 0.503791 6.547468 -0.101533 -0.147670 0.066811 0.943755 -1.359633 
0.000000 0.000000 0.000000 -0.000000 0.000000 -0.000000 -0.000000 -0.000000 -41.252007 0.000000 -0.000000 -0.000000 0.163516 0.000000 0.306886 0.000000 0.000001 -0.000001 -0.000000 0.000001 -0.000003 -0.163726 0.000000 0.306666 -11.569568 19.672145 -9.081011 -78.604979 -14.706883 7.610092 0.068166 0.000000 0.503791 -6.722801 0.309757 -0.096508 -0.164027 -1.410151 0.082910 -0.068166 0.000000 0.503791 7.738493 -0.378537 -0.161644 0.172375 1.470146 -1.781310 
0.000000 0.000000 0.000000 -0.000000 0.000000 -0.000000 0.000000 0.000000 -46.118192 0.000000 0.000000 0.000001 0.163516 0.000000 0.306886 0.000000 0.000001 0.000000 -0.000000 0.000001 0.000002 -0.163569 0.000000 0.306831 -12.064849 22.090237 -10.798183 -77.002754 -16.958716 6.601190 0.068166 0.000000 0.503791 -7.523986 0.433340 -0.108885 -0.223254 -1.748908 0.090843 -0.068166 0.000000 0.503791 8.494974 -0.607280 -0.163611 0.241466 1.806677 -2.049692 
0.000000 0.000000 0.000000 -0.000000 0.000000 -0.000000 0.000000 0.000000 -47.731954 0.000000 0.000000 0.000001 0.163516 0.000000 0.306886 -0.000000 0.000001 -0.000001 0.000000 0.000001 -0.000005 -0.163516 0.000000 0.306886 -12.666128 22.929312 -11.252405 -75.433784 -17.611976 6.438627 0.068166 0.000000 0.503791 -7.792321 0.474768 -0.112644 -0.243221 -1.875997 0.093392 -0.068166 0.000000 0.503791 8.748784 -0.772600 -0.156809 0.265003 1.923744 -2.139710 
0.000000 0.000000 0.000000 -0.000000 0.000000 -0.000000 0.000000 0.000000 -44.976061 0.000000 0.000000 0.000001 0.163516 0.000000 0.306886 0.303435 -0.289189 0.018517 0.008673 0.009480 0.001083 -0.163516 0.000000 0.306886 -13.430912 22.832971 -10.852713 -73.725540 -15.814425 6.952939 0.068166 0.000000 0.503791 -7.299140 0.456577 -0.102657 -0.224533 -1.895078 0.087851 -0.068166 0.000000 0.503791 8.076122 -0.892186 -0.133941 0.246348 1.930195 -2.060947 
0.000000 0.000000 0.000000 -0.000000 0.000000 -0.000000 0.000000 0.000000 -36.421956 0.000000 -0.000000 0.000001 0.163516 0.000000 0.306886 1.210465 -1.152339 0.082963 0.034560 0.037778 0.004294 -0.163516 0.000000 0.306886 -14.366458 22.416519 -9.997661 -71.798812 -10.684820 7.884302 0.068166 0.000000 0.503791 -5.825494 0.400886 -0.071982 -0.168361 -1.911443 0.071411 -0.068166 0.000000 0.503791 6.063246 -0.985586 -0.088034 0.190090 1.936162 -1.824561 
0.000000 0.000000 0.000000 -0.000000 0.000000 -0.000000 0.000000 0.000000 -22.096570 0.000000 0.000000 -0.000000 0.163516 0.000000 0.306886 2.642748 -2.510201 0.212316 0.075310 0.082329 0.009328 -0.163516 0.000000 0.306886 -15.413705 21.631636 -8.713716 -69.884535 -2.543097 8.982381 0.068166 0.000000 0.503791 -3.501856 0.310156 -0.020874 -0.079808 -1.924503 0.045572 -0.068166 0.000000 0.503791 2.885641 -1.052583 -0.024435 0.100361 1.940968 -1.449337 
0.000000 0.000000 0.000000 -0.000000 0.000000 -0.000000 0.000000 -0.000000 -3.733323 0.000000 0.000000 0.000000 0.163516 0.000000 0.306886 4.395664 -4.160488 0.416214 0.124946 0.136605 0.015418 -0.163516 0.000000 0.306886 -16.464395 20.474552 -7.110702 -68.220435 7.457085 10.005563 0.068166 0.000000 0.503791 -0.667724 0.193782 0.046322 0.028125 -1.933947 0.014123 -0.068166 0.000000 0.503791 -0.992324 -1.096136 0.048365 -0.011062 1.943912 -0.986477 
0.000000 0.000000 0.000000 -0.000000 0.000000 -0.000000 0.000000 -0.000000 14.750021 -0.000000 0.000000 0.000000 0.163516 0.000000 0.306886 6.158866 -5.803752 0.671261 0.174577 0.190884 0.021459 -0.163516 0.000000 0.306886 -17.387413 19.010640 -5.371434 -66.954733 17.411689 10.808124 0.068166 0.000000 0.503791 2.167013 0.066545 0.119472 0.136091 -1.939956 -0.017312 -0.068166 0.000000 0.503791 -4.869332 -1.121587 0.119007 -0.125943 1.944791 -0.514077 
0.000000 0.000000 0.000000 -0.000000 0.000000 -0.000000 0.000000 -0.000000 29.296710 0.000000 0.000000 0.000001 0.163516 0.000000 0.306886 7.614936 -7.145334 0.919048 0.215313 0.235448 0.026384 -0.163516 0.000000 0.306886 -18.079600 17.360335 -3.690076 -66.120643 25.442796 11.352667 0.068166 0.000000 0.503791 4.492031 -0.056893 0.184962 0.224736 -1.943203 -0.043112 -0.068166 0.000000 0.503791 -8.044879 -1.134639 0.176274 -0.225523 1.944162 -0.111690 
0.000000 0.000000 0.000000 -0.000000 0.000000 -0.000000 0.000000 -0.000000 37.947568 -0.000000 0.000000 -0.000000 0.163516 0.000000 0.306887 8.544251 -7.993222 1.094498 0.241187 0.263755 0.029498 -0.163516 0.000000 0.306887 -18.498492 15.651527 -2.206098 -65.673314 30.439185 11.660634 0.068166 0.000000 0.503791 5.966954 -0.166808 0.230798 0.281051 -1.944577 -0.059500 -0.068166 0.000000 0.503791 -10.056202 -1.139912 0.212543 -0.296735 1.943011 0.165947 
0.000000 0.000000 0.000000 -0.000000 0.000000 -0.000000 0.000000 -0.000000 40.577314 0.000000 -0.000000 0.000001 0.163516 0.000000 0.306886 8.856396 -8.276440 1.156420 0.249856 0.273240 0.030541 -0.163516 0.000000 0.306886 -18.654819 13.980394 -0.984441 -65.539941 32.090373 11.759754 0.068166 0.000000 0.503791 6.460732 -0.258843 0.249901 0.299920 -1.944888 -0.064990 -0.068166 0.000000 0.503791 -10.728738 -1.140967 0.224720 -0.333991 1.942208 0.296045 
0.000000 0.000000 0.000000 -0.000000 0.000000 -0.000000 0.000000 -0.000000 38.581027 -0.000000 0.000000 0.000001 0.163516 0.000000 0.306886 8.448448 -7.906129 1.075792 0.238524 0.260840 0.029177 -0.163585 0.000000 0.306814 -18.210386 12.020971 0.147202 -66.640544 30.910171 12.329490 0.068166 0.000000 0.503791 6.165640 -0.345776 0.246565 0.301349 -1.797503 -0.061839 -0.068166 0.000000 0.503791 -10.177674 -1.050199 0.222807 -0.350415 1.794426 0.346554 
0.000000 0.000000 0.000000 -0.000000 0.000000 -0.000000 -0.000000 0.000000 33.111172 0.000000 -0.000000 -0.000000 0.163516 0.000000 0.306886 7.245588 -6.806482 0.853043 0.204999 0.224166 0.025145 -0.163789 0.000000 0.306601 -16.813492 9.483982 1.380758 -69.765717 27.344980 13.835755 0.068166 0.000000 0.503791 5.292040 -0.438588 0.226482 0.305531 -1.361446 -0.052539 -0.068166 0.000000 0.503791 -8.546059 -0.781596 0.212026 -0.359157 1.358082 0.386228 
0.000000 0.000000 0.000000 -0.000000 0.000000 -0.000000 -0.000000 0.000000 24.824382 0.000000 -0.000000 -0.000000 0.163516 0.000000 0.306886 5.423703 -5.120887 0.558881 0.153919 0.168291 0.018950 -0.164100 0.000000 0.306275 -14.644141 6.631429 2.693767 -74.200607 21.744592 15.656556 0.068166 0.000000 0.503791 3.960358 -0.529692 0.191435 0.311765 -0.697008 -0.038431 -0.068166 0.000000 0.503791 -6.057274 -0.372746 0.180866 -0.360258 0.693485 0.413486 
